<?xml version="1.0" encoding="iso-8859-1"?>
<!-- Generator: Adobe Illustrator 19.0.0, SVG Export Plug-In . SVG Version: 6.00 Build 0)  -->
<svg version="1.1" id="Layer_1" xmlns="http://www.w3.org/2000/svg" xmlns:xlink="http://www.w3.org/1999/xlink" x="0px" y="0px"
	 viewBox="0 0 512 512" style="enable-background:new 0 0 512 512;" xml:space="preserve">
<path style="fill:#B3404A;" d="M403.568,512c-7.426,0-14.791-2.377-21.019-7.034L87.343,284.148
	c-8.959-6.701-14.097-16.961-14.097-28.147c0-11.187,5.137-21.446,14.097-28.146L382.549,7.035
	c10.723-8.021,24.821-9.277,36.795-3.282c11.973,5.995,19.41,18.04,19.41,31.429v57.144c0,7.642-6.196,13.836-13.836,13.836
	s-13.836-6.195-13.836-13.836V35.182c0-4.168-2.888-6.063-4.129-6.686c-1.241-0.621-4.49-1.799-7.826,0.699L103.919,250.013
	c-2.608,1.951-2.998,4.588-2.998,5.987s0.39,4.036,2.998,5.988l295.206,220.818c3.336,2.497,6.585,1.32,7.826,0.699
	c1.241-0.623,4.129-2.518,4.129-6.686V199.195c0-7.642,6.196-13.836,13.836-13.836s13.836,6.195,13.836,13.836v277.624
	c0,13.39-7.437,25.433-19.41,31.429C414.324,510.762,408.929,512,403.568,512z"/>
<polygon style="fill:#F4B2B0;" points="361.011,120.234 361.011,391.766 179.508,256 "/>
<path style="fill:#B3404A;" d="M361.012,405.604c-2.935,0-5.851-0.933-8.289-2.756L171.221,267.08
	c-3.492-2.612-5.548-6.719-5.548-11.08s2.056-8.468,5.548-11.08l181.502-135.767c4.197-3.138,9.804-3.635,14.484-1.292
	c4.684,2.345,7.64,7.134,7.64,12.371v271.533c0,5.238-2.958,10.027-7.64,12.371C365.246,405.119,363.124,405.604,361.012,405.604z
	 M202.607,256l144.567,108.137V147.863L202.607,256z"/>
<g>
</g>
<g>
</g>
<g>
</g>
<g>
</g>
<g>
</g>
<g>
</g>
<g>
</g>
<g>
</g>
<g>
</g>
<g>
</g>
<g>
</g>
<g>
</g>
<g>
</g>
<g>
</g>
<g>
</g>
</svg>
