<svg width="218" height="74" viewBox="0 0 218 74" fill="none" xmlns="http://www.w3.org/2000/svg">
<circle cx="98.5" cy="33.5" r="18.5" fill="#172126" fill-opacity="0.17"/>
<path d="M60.1591 29.68L60.2071 38.992C60.2071 42.192 60.1591 45.184 60.0631 47.968C60.6391 48.224 61.4391 48.352 62.4631 48.352H64.2871C66.5911 48.416 68.1111 48.448 68.8471 48.448L72.5431 48.4L75.9511 47.968C76.3671 47.968 76.5751 48.304 76.5751 48.976C76.5751 49.616 76.3031 50.288 75.7591 50.992C75.2151 51.664 74.7831 52 74.4631 52L65.7751 51.952H59.1991C57.1831 51.952 56.0311 51.824 55.7431 51.568C55.4231 51.248 55.2631 48.32 55.2631 42.784L55.3591 31.984L55.5031 21.568C55.5031 20.256 55.5831 19.408 55.7431 19.024C55.9351 18.608 56.3671 18.4 57.0391 18.4H57.8551L59.2471 18.352C59.9191 18.352 60.2551 18.944 60.2551 20.128V26.608L60.1591 29.68ZM101.63 41.152C101.63 44.448 100.494 47.184 98.2216 49.36C95.9816 51.504 93.2776 52.576 90.1096 52.576C86.9736 52.576 84.3656 51.584 82.2856 49.6C80.2376 47.616 79.2136 44.944 79.2136 41.584C79.2136 38.192 80.3016 35.536 82.4776 33.616C84.6856 31.664 87.7096 30.688 91.5496 30.688C93.6936 30.688 95.8216 31.36 97.9336 32.704C99.0216 33.44 99.9016 34.544 100.574 36.016C101.278 37.456 101.63 39.168 101.63 41.152ZM90.7816 49.024C92.7976 49.024 94.4136 48.304 95.6296 46.864C96.8776 45.392 97.5016 43.584 97.5016 41.44C97.5016 39.296 96.9576 37.52 95.8696 36.112C94.8136 34.704 93.2456 34 91.1656 34C89.1176 34 87.3896 34.64 85.9816 35.92C84.6056 37.2 83.9176 39.024 83.9176 41.392C83.9176 43.76 84.5576 45.632 85.8376 47.008C87.1176 48.352 88.7656 49.024 90.7816 49.024ZM112.367 39.52L112.271 45.904C112.271 47.376 112.543 48.368 113.087 48.88C113.631 49.392 114.879 49.648 116.831 49.648C119.455 49.648 121.375 48.912 122.591 47.44C123.807 45.936 124.415 43.968 124.415 41.536C124.415 39.072 123.855 37.184 122.735 35.872C121.647 34.528 120.159 33.856 118.271 33.856C117.215 33.856 115.999 34.08 114.623 34.528C113.279 34.944 112.527 35.344 112.367 35.728C112.303 35.824 112.271 36.032 112.271 36.352L112.319 37.696C112.351 38.144 112.367 38.752 112.367 39.52ZM112.463 51.808C112.367 53.6 112.319 56.192 112.319 59.584C112.383 60.448 112.415 61.376 112.415 62.368C112.415 63.392 112.303 64.016 112.079 64.24C111.855 64.496 110.703 64.624 108.623 64.624C108.143 64.624 107.823 64.416 107.663 64C107.503 63.584 107.439 63.072 107.471 62.464C107.663 53.824 107.759 47.712 107.759 44.128L107.663 34.24V33.616C107.663 33.328 107.663 33.136 107.663 33.04C107.695 32.944 107.711 32.8 107.711 32.608C107.743 32.384 107.775 32.24 107.807 32.176C107.839 32.08 107.871 31.968 107.903 31.84C107.967 31.68 108.031 31.584 108.095 31.552C108.191 31.488 108.303 31.424 108.431 31.36C108.623 31.232 109.215 31.168 110.207 31.168C111.231 31.168 111.791 31.184 111.887 31.216C111.919 31.28 111.951 31.584 111.983 32.128C112.015 32.672 112.063 33.072 112.127 33.328C114.527 31.568 117.135 30.688 119.951 30.688C122.799 30.688 125.023 31.68 126.623 33.664C128.223 35.648 129.023 37.856 129.023 40.288C129.023 42.72 128.639 44.8 127.871 46.528C127.135 48.256 125.871 49.696 124.079 50.848C122.287 52 120.095 52.576 117.503 52.576C116.031 52.576 114.351 52.32 112.463 51.808ZM136.332 24.4C136.012 24.304 135.628 23.984 135.18 23.44C134.764 22.864 134.556 22.336 134.556 21.856C134.588 21.344 134.908 20.832 135.516 20.32C136.156 19.776 136.972 19.504 137.964 19.504C139.436 19.504 140.172 20.208 140.172 21.616C140.172 22.608 139.852 23.344 139.212 23.824C138.604 24.304 138.044 24.544 137.532 24.544C137.052 24.544 136.652 24.496 136.332 24.4ZM139.308 41.584L139.452 51.088C139.452 51.472 139.404 51.712 139.308 51.808C138.988 51.968 138.316 52.048 137.292 52.048C136.268 52.048 135.628 51.984 135.372 51.856C135.148 51.696 135.036 51.248 135.036 50.512L134.844 41.728C134.844 38.656 134.86 36.704 134.892 35.872L135.036 33.04C135.036 32.144 135.18 31.616 135.468 31.456C135.756 31.296 136.3 31.216 137.1 31.216C137.932 31.216 138.636 31.264 139.212 31.36C139.276 32.768 139.308 33.872 139.308 34.672V41.584ZM163.121 40.144C163.121 40.144 159.457 40.16 152.129 40.192C150.945 40.192 150.257 40.288 150.065 40.48C149.905 40.704 149.825 41.072 149.825 41.584C149.825 44.08 150.529 46 151.937 47.344C153.377 48.656 155.009 49.312 156.833 49.312C158.657 49.312 160.081 49.072 161.105 48.592C161.137 48.592 161.457 48.384 162.065 47.968C162.673 47.552 163.089 47.344 163.313 47.344C163.569 47.344 163.761 47.44 163.889 47.632C164.017 47.824 164.081 48.016 164.081 48.208C164.081 49.424 163.185 50.464 161.393 51.328C159.601 52.16 157.505 52.576 155.105 52.576C152.737 52.576 150.465 51.616 148.289 49.696C146.145 47.776 145.073 45.184 145.073 41.92C145.073 38.656 146.081 35.968 148.097 33.856C150.145 31.744 152.881 30.688 156.305 30.688C158.801 30.688 160.817 31.424 162.353 32.896C163.985 34.432 164.801 36.288 164.801 38.464C164.801 39.584 164.241 40.144 163.121 40.144ZM150.641 37.792C156.721 37.792 160.241 37.76 161.201 37.696C161.105 36.416 160.609 35.36 159.713 34.528C158.849 33.696 157.745 33.28 156.401 33.28C155.057 33.28 153.793 33.76 152.609 34.72C151.457 35.648 150.801 36.672 150.641 37.792Z" fill="url(#paint0_linear_3_20)"/>
<defs>
<linearGradient id="paint0_linear_3_20" x1="0" y1="37" x2="218" y2="37" gradientUnits="userSpaceOnUse">
<stop stop-color="#172126"/>
<stop offset="1" stop-color="#EE5253"/>
</linearGradient>
</defs>
</svg>
