<svg width="476" height="221" viewBox="0 0 476 221" fill="none" xmlns="http://www.w3.org/2000/svg">
<circle cx="185.5" cy="110.5" r="52.5" fill="#172126" fill-opacity="0.17"/>
<path d="M91.4772 90.04L91.6212 117.976C91.6212 127.576 91.4772 136.552 91.1892 144.904C92.9172 145.672 95.3172 146.056 98.3892 146.056H103.861C110.773 146.248 115.333 146.344 117.541 146.344L128.629 146.2L138.853 144.904C140.101 144.904 140.725 145.912 140.725 147.928C140.725 149.848 139.909 151.864 138.277 153.976C136.645 155.992 135.349 157 134.389 157L108.325 156.856H88.5972C82.5492 156.856 79.0932 156.472 78.2292 155.704C77.2692 154.744 76.7892 145.96 76.7892 129.352L77.0772 96.952L77.5092 65.704C77.5092 61.768 77.7492 59.224 78.2292 58.072C78.8052 56.824 80.1012 56.2 82.1172 56.2H84.5652L88.7412 56.056C90.7572 56.056 91.7652 57.832 91.7652 61.384V80.824L91.4772 90.04ZM215.889 124.456C215.889 134.344 212.481 142.552 205.665 149.08C198.945 155.512 190.833 158.728 181.329 158.728C171.921 158.728 164.097 155.752 157.857 149.8C151.713 143.848 148.641 135.832 148.641 125.752C148.641 115.576 151.905 107.608 158.433 101.848C165.057 95.992 174.129 93.064 185.649 93.064C192.081 93.064 198.465 95.08 204.801 99.112C208.065 101.32 210.705 104.632 212.721 109.048C214.833 113.368 215.889 118.504 215.889 124.456ZM183.345 148.072C189.393 148.072 194.241 145.912 197.889 141.592C201.633 137.176 203.505 131.752 203.505 125.32C203.505 118.888 201.873 113.56 198.609 109.336C195.441 105.112 190.737 103 184.497 103C178.353 103 173.169 104.92 168.945 108.76C164.817 112.6 162.753 118.072 162.753 125.176C162.753 132.28 164.673 137.896 168.513 142.024C172.353 146.056 177.297 148.072 183.345 148.072ZM248.1 119.56L247.812 138.712C247.812 143.128 248.628 146.104 250.26 147.64C251.892 149.176 255.636 149.944 261.492 149.944C269.364 149.944 275.124 147.736 278.772 143.32C282.42 138.808 284.244 132.904 284.244 125.608C284.244 118.216 282.564 112.552 279.204 108.616C275.94 104.584 271.476 102.568 265.812 102.568C262.644 102.568 258.996 103.24 254.868 104.584C250.836 105.832 248.58 107.032 248.1 108.184C247.908 108.472 247.812 109.096 247.812 110.056L247.956 114.088C248.052 115.432 248.1 117.256 248.1 119.56ZM248.388 156.424C248.1 161.8 247.956 169.576 247.956 179.752C248.148 182.344 248.244 185.128 248.244 188.104C248.244 191.176 247.908 193.048 247.236 193.72C246.564 194.488 243.108 194.872 236.868 194.872C235.428 194.872 234.468 194.248 233.988 193C233.508 191.752 233.316 190.216 233.412 188.392C233.988 162.472 234.276 144.136 234.276 133.384L233.988 103.72V101.848C233.988 100.984 233.988 100.408 233.988 100.12C234.084 99.832 234.132 99.4 234.132 98.824C234.228 98.152 234.324 97.72 234.42 97.528C234.516 97.24 234.612 96.904 234.708 96.52C234.9 96.04 235.092 95.752 235.284 95.656C235.572 95.464 235.908 95.272 236.292 95.08C236.868 94.696 238.644 94.504 241.62 94.504C244.692 94.504 246.372 94.552 246.66 94.648C246.756 94.84 246.852 95.752 246.948 97.384C247.044 99.016 247.188 100.216 247.38 100.984C254.58 95.704 262.404 93.064 270.852 93.064C279.396 93.064 286.068 96.04 290.868 101.992C295.668 107.944 298.068 114.568 298.068 121.864C298.068 129.16 296.916 135.4 294.612 140.584C292.404 145.768 288.612 150.088 283.236 153.544C277.86 157 271.284 158.728 263.508 158.728C259.092 158.728 254.052 157.96 248.388 156.424ZM319.997 74.2C319.037 73.912 317.885 72.952 316.541 71.32C315.293 69.592 314.669 68.008 314.669 66.568C314.765 65.032 315.725 63.496 317.549 61.96C319.469 60.328 321.917 59.512 324.893 59.512C329.309 59.512 331.517 61.624 331.517 65.848C331.517 68.824 330.557 71.032 328.637 72.472C326.813 73.912 325.133 74.632 323.597 74.632C322.157 74.632 320.957 74.488 319.997 74.2ZM328.925 125.752L329.357 154.264C329.357 155.416 329.213 156.136 328.925 156.424C327.965 156.904 325.949 157.144 322.877 157.144C319.805 157.144 317.885 156.952 317.117 156.568C316.445 156.088 316.109 154.744 316.109 152.536L315.533 126.184C315.533 116.968 315.581 111.112 315.677 108.616L316.109 100.12C316.109 97.432 316.541 95.848 317.405 95.368C318.269 94.888 319.901 94.648 322.301 94.648C324.797 94.648 326.909 94.792 328.637 95.08C328.829 99.304 328.925 102.616 328.925 105.016V125.752ZM400.363 121.432C400.363 121.432 389.371 121.48 367.387 121.576C363.835 121.576 361.771 121.864 361.195 122.44C360.715 123.112 360.475 124.216 360.475 125.752C360.475 133.24 362.587 139 366.811 143.032C371.131 146.968 376.027 148.936 381.499 148.936C386.971 148.936 391.243 148.216 394.315 146.776C394.411 146.776 395.371 146.152 397.195 144.904C399.019 143.656 400.267 143.032 400.939 143.032C401.707 143.032 402.283 143.32 402.667 143.896C403.051 144.472 403.243 145.048 403.243 145.624C403.243 149.272 400.555 152.392 395.179 154.984C389.803 157.48 383.515 158.728 376.315 158.728C369.211 158.728 362.395 155.848 355.867 150.088C349.435 144.328 346.219 136.552 346.219 126.76C346.219 116.968 349.243 108.904 355.291 102.568C361.435 96.232 369.643 93.064 379.915 93.064C387.403 93.064 393.451 95.272 398.059 99.688C402.955 104.296 405.403 109.864 405.403 116.392C405.403 119.752 403.723 121.432 400.363 121.432ZM362.923 114.376C381.163 114.376 391.723 114.28 394.603 114.088C394.315 110.248 392.827 107.08 390.139 104.584C387.547 102.088 384.235 100.84 380.203 100.84C376.171 100.84 372.379 102.28 368.827 105.16C365.371 107.944 363.403 111.016 362.923 114.376Z" fill="url(#paint0_linear_26_32)"/>
<defs>
<linearGradient id="paint0_linear_26_32" x1="0" y1="110.5" x2="476" y2="110.5" gradientUnits="userSpaceOnUse">
<stop stop-color="#172126"/>
<stop offset="1" stop-color="#EE5253"/>
</linearGradient>
</defs>
</svg>
