<svg width="655" height="510" viewBox="0 0 655 510" fill="none" xmlns="http://www.w3.org/2000/svg">
<path d="M655 213.829C655 241.937 632.21 286.798 604.096 286.798C575.983 286.798 553.193 241.937 553.193 213.829C553.193 200.33 558.556 187.385 568.102 177.84C577.648 168.296 590.596 162.934 604.096 162.934C617.597 162.934 630.544 168.296 640.091 177.84C649.637 187.385 655 200.33 655 213.829Z" fill="#64FFF6"/>
<path d="M605.982 288.608C599.585 290.81 598.053 299.532 600.254 305.929C602.454 312.325 607.114 317.631 609.459 323.976C610.529 327.176 611.297 330.47 611.753 333.813C613.092 341.773 614.436 349.872 613.404 357.878C612.424 365.472 609.347 372.632 605.914 379.476C599.265 392.728 591.178 405.208 581.798 416.691" stroke="#2F2E41" stroke-width="2"/>
<path d="M609.003 291.704C605.732 289.605 602.461 289.605 599.19 291.704V281.893H609.003V291.704Z" fill="#64FFF6"/>
<path d="M599.216 286.591C600.74 287.362 602.427 287.761 604.136 287.754C605.845 287.747 607.528 287.335 609.046 286.55" stroke="#64FFF6" stroke-width="2"/>
<path opacity="0.4" d="M625.255 205.244C631.183 205.244 635.988 199.479 635.988 192.367C635.988 185.255 631.183 179.49 625.255 179.49C619.328 179.49 614.522 185.255 614.522 192.367C614.522 199.479 619.328 205.244 625.255 205.244Z" fill="white"/>
<path d="M0 205.857C0 233.966 22.7903 278.827 50.9036 278.827C79.0168 278.827 101.807 233.966 101.807 205.857C101.807 192.359 96.4441 179.414 86.8978 169.869C77.3516 160.324 64.404 154.962 50.9036 154.962C37.4031 154.962 24.4556 160.324 14.9093 169.869C5.36304 179.414 0 192.359 0 205.857Z" fill="#64FFF6"/>
<path d="M49.0183 280.637C55.4152 282.839 56.9467 291.561 54.7464 297.957C52.5461 304.354 47.8859 309.66 45.5411 316.005C44.4712 319.205 43.7031 322.498 43.247 325.841C41.9075 333.801 40.5643 341.901 41.5964 349.906C42.5755 357.5 45.6528 364.66 49.0858 371.505C55.7347 384.757 63.8223 397.237 73.2024 408.72" stroke="#2F2E41" stroke-width="2"/>
<path d="M45.9972 283.732C49.2681 281.634 52.539 281.634 55.8099 283.732V273.921H45.9972V283.732Z" fill="#64FFF6"/>
<path d="M55.7842 278.619C54.2595 279.391 52.5732 279.79 50.8642 279.783C49.1552 279.776 47.4723 279.363 45.954 278.579" stroke="#64FFF6" stroke-width="2"/>
<path opacity="0.4" d="M29.7449 197.272C35.6723 197.272 40.4775 191.507 40.4775 184.395C40.4775 177.284 35.6723 171.518 29.7449 171.518C23.8174 171.518 19.0122 177.284 19.0122 184.395C19.0122 191.507 23.8174 197.272 29.7449 197.272Z" fill="white"/>
<path d="M618.202 429.672C618.202 458.627 482.01 510 314.008 510C146.005 510 25.7584 405.893 25.7584 376.937C25.7584 347.982 146.005 405.144 314.008 405.144C482.01 405.144 618.202 400.717 618.202 429.672Z" fill="#3F3D56"/>
<path opacity="0.1" d="M618.202 429.672C618.202 458.627 482.01 510 314.008 510C146.005 510 25.7584 405.893 25.7584 376.937C25.7584 347.982 146.005 405.144 314.008 405.144C482.01 405.144 618.202 400.717 618.202 429.672Z" fill="black"/>
<path d="M618.202 429.365C618.202 458.32 482.01 481.793 314.008 481.793C146.005 481.793 25.7584 405.893 25.7584 376.937C25.7584 347.982 146.005 376.937 314.008 376.937C482.01 376.937 618.202 400.41 618.202 429.365Z" fill="#3F3D56"/>
<path d="M267.514 347.769L261.353 387.094C261.353 387.094 231.025 403.202 252.35 403.676C273.674 404.15 374.135 403.676 374.135 403.676C374.135 403.676 393.564 403.676 362.762 386.62L356.602 345.4L267.514 347.769Z" fill="#2F2E41"/>
<path opacity="0.1" d="M248.06 403.25C252.903 398.941 261.353 394.452 261.353 394.452L267.514 355.127L356.602 355.211L362.762 393.978C369.945 397.956 374.395 401.005 376.998 403.344C380.954 402.441 385.277 399.087 362.762 386.62L356.602 345.4L267.514 347.769L261.353 387.094C261.353 387.094 235.869 400.632 248.06 403.25Z" fill="black"/>
<path d="M498.157 73.6796H125.01C117.217 73.6796 110.898 79.9967 110.898 87.7892V339.108C110.898 346.9 117.217 353.217 125.01 353.217H498.157C505.951 353.217 512.269 346.9 512.269 339.108V87.7892C512.269 79.9967 505.951 73.6796 498.157 73.6796Z" fill="#2F2E41"/>
<path d="M498.764 88.6041H124.404V298.021H498.764V88.6041Z" fill="#F1F5F8"/>
<path d="M311.584 84.34C312.893 84.34 313.953 83.2793 313.953 81.971C313.953 80.6626 312.893 79.602 311.584 79.602C310.275 79.602 309.215 80.6626 309.215 81.971C309.215 83.2793 310.275 84.34 311.584 84.34Z" fill="#F2F2F2"/>
<path d="M512.269 314.603V339.108C512.27 340.961 511.905 342.796 511.196 344.508C510.487 346.219 509.447 347.775 508.137 349.085C506.826 350.395 505.27 351.435 503.558 352.144C501.846 352.853 500.011 353.218 498.157 353.217H125.01C123.157 353.218 121.322 352.853 119.61 352.144C117.898 351.435 116.342 350.395 115.031 349.085C113.721 347.775 112.681 346.219 111.972 344.508C111.263 342.796 110.898 340.961 110.899 339.108V314.603H512.269Z" fill="#2F2E41"/>
<path d="M416.31 429.261V433.999H161.366V430.209L161.717 429.261L168 412.204H411.097L416.31 429.261Z" fill="#2F2E41"/>
<path d="M514.421 424.623C513.956 426.608 512.203 428.702 508.241 430.682C494.025 437.789 465.119 428.787 465.119 428.787C465.119 428.787 442.847 424.997 442.847 415.047C443.472 414.619 444.124 414.231 444.799 413.887C450.776 410.725 470.594 402.924 505.732 414.217C508.321 415.029 510.633 416.544 512.411 418.593C513.835 420.26 514.951 422.374 514.421 424.623Z" fill="#2F2E41"/>
<path opacity="0.1" d="M514.421 424.623C497.02 431.289 481.51 431.786 465.593 420.733C457.565 415.161 450.273 413.782 444.799 413.887C450.776 410.725 470.594 402.924 505.732 414.217C508.321 415.029 510.633 416.544 512.411 418.593C513.835 420.26 514.951 422.374 514.421 424.623Z" fill="black"/>
<path d="M492.604 420.733C496.006 420.733 498.764 419.884 498.764 418.838C498.764 417.791 496.006 416.942 492.604 416.942C489.201 416.942 486.443 417.791 486.443 418.838C486.443 419.884 489.201 420.733 492.604 420.733Z" fill="#F2F2F2"/>
<path d="M311.584 343.031C316.556 343.031 320.588 339 320.588 334.029C320.588 329.057 316.556 325.027 311.584 325.027C306.611 325.027 302.58 329.057 302.58 334.029C302.58 339 306.611 343.031 311.584 343.031Z" fill="#F2F2F2"/>
<path opacity="0.1" d="M416.31 429.261V433.999H161.366V430.209L161.717 429.261H416.31Z" fill="black"/>
<path d="M534.226 186.818C527.829 189.021 526.298 197.742 528.498 204.139C530.698 210.536 535.358 215.842 537.703 222.187C538.773 225.387 539.541 228.68 539.997 232.023C541.337 239.983 542.68 248.083 541.648 256.088C540.669 263.682 537.592 270.842 534.159 277.686C527.51 290.938 519.422 303.419 510.042 314.902" stroke="#2F2E41" stroke-width="2"/>
<path d="M583.244 112.039C583.244 140.147 560.454 185.009 532.341 185.009C504.228 185.009 481.437 140.147 481.437 112.039C481.437 98.5406 486.8 85.5953 496.347 76.0507C505.893 66.506 518.84 61.1439 532.341 61.1439C545.841 61.1439 558.789 66.506 568.335 76.0507C577.881 85.5953 583.244 98.5406 583.244 112.039Z" fill="#EE5253"/>
<path d="M537.247 189.914C533.976 187.815 530.705 187.815 527.434 189.914V180.103H537.247V189.914Z" fill="#EE5253"/>
<path d="M527.46 184.801C528.985 185.573 530.671 185.971 532.38 185.964C534.089 185.957 535.772 185.545 537.29 184.76" stroke="#EE5253" stroke-width="2"/>
<path opacity="0.4" d="M553.5 103.454C559.427 103.454 564.232 97.6889 564.232 90.5771C564.232 83.4653 559.427 77.7001 553.5 77.7001C547.572 77.7001 542.767 83.4653 542.767 90.5771C542.767 97.6889 547.572 103.454 553.5 103.454Z" fill="white"/>
<path d="M370.19 176.938V230.007L356.158 258.311V258.314L355.713 259.208L318.566 256.755L304.286 255.811L271.144 253.621V190.141L304.286 191.076L319.107 191.495L356.603 192.554L370.19 176.938Z" fill="#EE5253"/>
<path opacity="0.1" d="M370.19 180.069V230.007L366.761 236.921V236.924L363.246 244.011V244.013L356.158 258.311L356.95 205.242L357.111 194.537L363.851 187.082V187.079L366.789 183.829L370.19 180.069Z" fill="black"/>
<path d="M372.095 162.845V181.381L370.19 184.415L366.787 189.837L363.772 194.639L357.111 205.25L356.95 205.242L268.223 200.679V182.397L268.447 182.156L279.04 170.691L282.874 166.542L289.81 159.036L372.095 162.845Z" fill="#EE5253"/>
<path opacity="0.1" d="M357.111 186.968V205.25L268.223 200.679V182.397L268.447 182.156L357.111 186.968Z" fill="black"/>
<path opacity="0.15" d="M372.095 162.845V181.381L357.111 205.25V186.968L372.095 162.845Z" fill="black"/>
<path d="M366.797 171.374L366.789 183.829L366.787 189.837L366.761 236.921V236.924L363.246 244.011L363.772 194.639L363.851 187.082V187.079L363.97 175.925L279.04 170.691L282.874 166.542L366.797 171.374Z" fill="#2F2E41"/>
<path d="M325.111 171.986L319.16 184.908L319.107 191.495L318.566 256.755L304.286 255.811V184.048L311.905 171.986H325.111Z" fill="#2F2E41"/>
<path d="M305.513 172.856C302.075 173.999 298.38 174.129 294.87 173.229C294.187 173.097 293.546 172.8 293.003 172.364C292.419 171.719 292.02 170.929 291.848 170.076C291.228 168.315 290.884 166.468 290.829 164.601C290.871 162.737 291.585 160.791 293.106 159.713C293.415 159.526 293.705 159.308 293.971 159.063C294.288 158.663 294.516 158.199 294.64 157.704C295.68 154.601 297.697 151.324 300.933 150.827C303.918 150.369 306.635 152.453 308.935 154.41L313.983 158.705C314.543 157.2 315.545 155.899 316.858 154.974C318.171 154.048 319.733 153.541 321.339 153.519C322.945 153.498 324.521 153.962 325.858 154.851C327.196 155.741 328.233 157.014 328.834 158.503C331.893 155.058 335.748 152.413 340.064 150.799C341.02 150.443 342.143 150.153 343.015 150.683C343.554 151.081 343.962 151.629 344.19 152.258C345.564 155.266 346.308 158.522 346.378 161.827C346.731 161.707 347.114 161.707 347.467 161.829C347.819 161.95 348.121 162.186 348.324 162.499C348.715 163.136 348.938 163.862 348.972 164.608C349.107 165.762 349.174 166.922 349.174 168.084C349.173 169.308 349.059 170.631 348.261 171.56C347.229 172.76 345.448 172.887 343.866 172.925C344.628 173.601 344.256 174.963 343.413 175.535C342.57 176.107 341.48 176.118 340.461 176.108C336.534 176.07 332.356 175.958 329.089 173.778C327.799 172.918 326.719 171.771 325.426 170.916C322.256 168.818 318.276 168.718 314.607 168.892C311.295 169.048 308.667 171.8 305.513 172.856Z" fill="#2F2E41"/>
<path d="M304.794 171.986C304.794 171.986 272.033 176.557 267.461 196.362L274.318 195.347L279.144 203.98C279.144 203.98 284.223 184.682 299.207 180.112C314.191 175.541 319.524 174.779 319.524 174.779C319.524 174.779 329.936 177.318 339.333 207.535L344.666 200.171L354.063 202.203C354.063 202.203 347.206 178.588 328.667 171.986L304.794 171.986Z" fill="#2F2E41"/>
</svg>
